<?xml version="1.0" encoding="utf-8"?>
<!-- Generator: Adobe Illustrator 17.0.0, SVG Export Plug-In . SVG Version: 6.00 Build 0)  -->
<!DOCTYPE svg PUBLIC "-//W3C//DTD SVG 1.1//EN" "http://www.w3.org/Graphics/SVG/1.1/DTD/svg11.dtd">
<svg version="1.1" id="Layer_1" xmlns="http://www.w3.org/2000/svg" xmlns:xlink="http://www.w3.org/1999/xlink" x="0px" y="0px"
	 width="521.726px" height="280.251px" viewBox="0 0 521.726 280.251" enable-background="new 0 0 521.726 280.251"
	 xml:space="preserve">
<rect x="-6.036" y="-0.027" fill="#29421C" width="534.108" height="277.279"/>
<text transform="matrix(1 0 0 1 212.4743 142.4821)" fill="#D6DE26" font-family="'MyriadPro-Regular'" font-size="93.5319">OI</text>
<text transform="matrix(1 0 0 1 304.3989 142.4821)" fill="#231F20" font-family="'MyriadPro-Regular'" font-size="93.5319">00</text>
<text transform="matrix(1 0 0 1 120.5494 142.4821)" fill="#231F20" font-family="'MyriadPro-Regular'" font-size="93.5319">11</text>
<g>
	<text transform="matrix(1 0 0 1 131.5331 199.2722)" fill="#8BC541" font-family="'Montserrat-Regular'" font-size="43.1685">open indore</text>
</g>
<rect x="-6.036" y="-0.027" fill="#29421C" width="534.108" height="295.884"/>
<text transform="matrix(1 0 0 1 212.4743 142.4821)" fill="#D6DE26" font-family="'MyriadPro-Regular'" font-size="93.5319">OI</text>
<text transform="matrix(1 0 0 1 304.3989 142.4821)" fill="#231F20" font-family="'MyriadPro-Regular'" font-size="93.5319">00</text>
<text transform="matrix(1 0 0 1 120.5494 142.4821)" fill="#231F20" font-family="'MyriadPro-Regular'" font-size="93.5319">11</text>
<g>
	<text transform="matrix(1 0 0 1 131.5331 199.2722)" fill="#8BC541" font-family="'Montserrat-Regular'" font-size="43.1685">open indore</text>
</g>
</svg>
